<mxfile host="app.diagrams.net" modified="2024-05-12T03:45:24.039Z" agent="Mozilla/5.0 (Macintosh; Intel Mac OS X 10_15_7) AppleWebKit/537.36 (KHTML, like Gecko) Chrome/124.0.0.0 Safari/537.36" etag="BgOtwYYjqN39xPknC-cM" version="24.4.0" type="device">
  <diagram name="Page-1" id="DHkRF9XEPqF85aQp4GFN">
    <mxGraphModel dx="621" dy="348" grid="1" gridSize="10" guides="1" tooltips="1" connect="1" arrows="1" fold="1" page="1" pageScale="1" pageWidth="827" pageHeight="1169" math="0" shadow="0">
      <root>
        <mxCell id="0" />
        <mxCell id="1" parent="0" />
        <mxCell id="zu_sQrurOpSXv0ozEl-f-2" value="" style="rounded=0;whiteSpace=wrap;html=1;" vertex="1" parent="1">
          <mxGeometry x="180" y="165" width="201.6" height="420" as="geometry" />
        </mxCell>
        <mxCell id="zu_sQrurOpSXv0ozEl-f-3" value="" style="rounded=0;whiteSpace=wrap;html=1;" vertex="1" parent="1">
          <mxGeometry x="184" y="190" width="191" height="60" as="geometry" />
        </mxCell>
        <mxCell id="zu_sQrurOpSXv0ozEl-f-4" value="1" style="rounded=0;whiteSpace=wrap;html=1;" vertex="1" parent="1">
          <mxGeometry x="190.8" y="270" width="40" height="40" as="geometry" />
        </mxCell>
        <mxCell id="zu_sQrurOpSXv0ozEl-f-5" value="2" style="rounded=0;whiteSpace=wrap;html=1;" vertex="1" parent="1">
          <mxGeometry x="260.3" y="270" width="40" height="40" as="geometry" />
        </mxCell>
        <mxCell id="zu_sQrurOpSXv0ozEl-f-6" value="3" style="rounded=0;whiteSpace=wrap;html=1;" vertex="1" parent="1">
          <mxGeometry x="330.8" y="270" width="40" height="40" as="geometry" />
        </mxCell>
        <mxCell id="zu_sQrurOpSXv0ozEl-f-7" value="7" style="rounded=0;whiteSpace=wrap;html=1;" vertex="1" parent="1">
          <mxGeometry x="190.8" y="390" width="40" height="40" as="geometry" />
        </mxCell>
        <mxCell id="zu_sQrurOpSXv0ozEl-f-8" value="8" style="rounded=0;whiteSpace=wrap;html=1;" vertex="1" parent="1">
          <mxGeometry x="260.3" y="390" width="40" height="40" as="geometry" />
        </mxCell>
        <mxCell id="zu_sQrurOpSXv0ozEl-f-9" value="9" style="rounded=0;whiteSpace=wrap;html=1;" vertex="1" parent="1">
          <mxGeometry x="330.8" y="390" width="40" height="40" as="geometry" />
        </mxCell>
        <mxCell id="zu_sQrurOpSXv0ozEl-f-10" value="4" style="rounded=0;whiteSpace=wrap;html=1;" vertex="1" parent="1">
          <mxGeometry x="190.8" y="330" width="40" height="40" as="geometry" />
        </mxCell>
        <mxCell id="zu_sQrurOpSXv0ozEl-f-11" value="5" style="rounded=0;whiteSpace=wrap;html=1;" vertex="1" parent="1">
          <mxGeometry x="260.3" y="330" width="40" height="40" as="geometry" />
        </mxCell>
        <mxCell id="zu_sQrurOpSXv0ozEl-f-12" value="6" style="rounded=0;whiteSpace=wrap;html=1;" vertex="1" parent="1">
          <mxGeometry x="330.8" y="330" width="40" height="40" as="geometry" />
        </mxCell>
        <mxCell id="zu_sQrurOpSXv0ozEl-f-16" value="+" style="rounded=0;whiteSpace=wrap;html=1;" vertex="1" parent="1">
          <mxGeometry x="280" y="480" width="95" height="93.75" as="geometry" />
        </mxCell>
        <mxCell id="zu_sQrurOpSXv0ozEl-f-21" value="c" style="rounded=0;whiteSpace=wrap;html=1;" vertex="1" parent="1">
          <mxGeometry x="190.8" y="538.75" width="35.47" height="35" as="geometry" />
        </mxCell>
        <mxCell id="zu_sQrurOpSXv0ozEl-f-22" value="x" style="rounded=0;whiteSpace=wrap;html=1;" vertex="1" parent="1">
          <mxGeometry x="190.8" y="480" width="35.47" height="35" as="geometry" />
        </mxCell>
        <mxCell id="zu_sQrurOpSXv0ozEl-f-23" value="-" style="rounded=0;whiteSpace=wrap;html=1;" vertex="1" parent="1">
          <mxGeometry x="230.8" y="538.75" width="35.47" height="35" as="geometry" />
        </mxCell>
        <mxCell id="zu_sQrurOpSXv0ozEl-f-24" value="/" style="rounded=0;whiteSpace=wrap;html=1;" vertex="1" parent="1">
          <mxGeometry x="230.8" y="480" width="35.47" height="35" as="geometry" />
        </mxCell>
        <mxCell id="zu_sQrurOpSXv0ozEl-f-25" value="0" style="rounded=0;whiteSpace=wrap;html=1;" vertex="1" parent="1">
          <mxGeometry x="260" y="440" width="109.5" height="30" as="geometry" />
        </mxCell>
      </root>
    </mxGraphModel>
  </diagram>
</mxfile>
